<?xml version="1.0" encoding="UTF-8"?>
<svg xmlns="http://www.w3.org/2000/svg" xmlns:xlink="http://www.w3.org/1999/xlink" width="1053.53" height="631.9200000000001"><defs/><rect width="100%" height="100%" fill="#FFFFFF"/><g transform="scale(1.33) translate(395,42)" style="fill:none;"><g transform="translate(-56,-15)"><path d="M57,31v34q0,15 15,15h158q15,0 15,15v34" stroke="#707070" stroke-width="2" stroke-linecap="round"/></g><g transform="translate(-56,-15)"><path d="M57,31v34q0,15 15,15h231q15,0 15,15v34" stroke="#707070" stroke-width="2" stroke-linecap="round"/></g><g transform="translate(-56,-15)"><path d="M57,31v34q0,15 15,15h307q15,0 15,15v34" stroke="#707070" stroke-width="2" stroke-linecap="round"/></g><g transform="translate(306,115)"><path d="M32,31v42l-1,55v1" stroke="#707070" stroke-width="2" stroke-linecap="round"/></g><g transform="translate(-124,-15)"><path d="M125,31v34q0,15 -15,15h-72q-15,0 -15,15v34" stroke="#707070" stroke-width="2" stroke-linecap="round"/></g><g transform="translate(-186,-15)"><path d="M187,31v34q0,15 -15,15h-136q-15,0 -15,15v34" stroke="#707070" stroke-width="2" stroke-linecap="round"/></g><g transform="translate(-296,115)"><path d="M131,31v34q0,15 -15,15h-72q-15,0 -15,15v34" stroke="#707070" stroke-width="2" stroke-linecap="round"/></g><g transform="translate(-218,115)"><path d="M53,31v34q0,15 -15,15h-3q-15,0 -15,15v34" stroke="#707070" stroke-width="2" stroke-linecap="round"/></g><g transform="translate(-186,115)"><path d="M21,31v34q0,15 15,15h4q15,0 15,15v34" stroke="#707070" stroke-width="2" stroke-linecap="round"/></g><g transform="translate(-186,115)"><path d="M21,31v34q0,15 15,15h76q15,0 15,15v34" stroke="#707070" stroke-width="2" stroke-linecap="round"/></g><g transform="translate(-109,245)"><path d="M50,31v42l-27,55v1" stroke="#707070" stroke-width="2" stroke-linecap="round"/></g><g transform="translate(-84,245)"><path d="M25,31v34q0,15 15,15h3q15,0 15,15v34" stroke="#707070" stroke-width="2" stroke-linecap="round"/></g><g transform="translate(-368,-15)"><path d="M369,31v34q0,15 -15,15h-311q-15,0 -15,15v34" stroke="#707070" stroke-width="2" stroke-linecap="round"/></g><g transform="translate(-368,115)"><path d="M28,31v42l1,55v1" stroke="#707070" stroke-width="2" stroke-linecap="round"/></g><g transform="translate(-56,-15)"><path d="M57,31v34q0,15 15,15h83q15,0 15,15v34" stroke="#707070" stroke-width="2" stroke-linecap="round"/></g><g transform="translate(-56,-15)"><path d="M57,31v34q0,15 15,15h12q15,0 15,15v34" stroke="#707070" stroke-width="2" stroke-linecap="round"/></g><g transform="translate(-14,115)"><path d="M57,31v34q0,15 -15,15h-5q-15,0 -15,15v34" stroke="#707070" stroke-width="2" stroke-linecap="round"/></g><g transform="translate(17,115)"><path d="M26,31v34q0,15 15,15h3q15,0 15,15v34" stroke="#707070" stroke-width="2" stroke-linecap="round"/></g><g transform="translate(-56,-15)"><rect x="0" y="0" width="113" height="30" border="1" rx="10" ry="10" style="fill:#22AAE0;stroke:#707070;stroke-width:1px;"/><g transform="translate (6 6) scale(0.005859375)" style="fill:#FFFFFF;"><g transform="translate(21.66666666666606 2048) scale (1 -1)"><path d="M1047 406Q1047 208 904.5 94Q762 -20 508 -20Q274 -20 94 68L94 356Q242 290 344.5 263Q447 236 532 236Q634 236 688.5 275Q743 314 743 391Q743 434 719 467.5Q695 501 648.5 532Q602 563 459 631Q325 694 258 752Q191 810 151 887Q111 964 111 1067Q111 1261 242.5 1372Q374 1483 606 1483Q720 1483 823.5 1456Q927 1429 1040 1380L940 1139Q823 1187 746.5 1206Q670 1225 596 1225Q508 1225 461 1184Q414 1143 414 1077Q414 1036 433 1005.5Q452 975 493.5 946.5Q535 918 690 844Q895 746 971 647.5Q1047 549 1047 406Z"/></g><g transform="translate(1149.666666666666 2048) scale (1 -1)"><path d="M870 0L811 152L803 152Q726 55 644.5 17.5Q563 -20 432 -20Q271 -20 178.5 72Q86 164 86 334Q86 512 210.5 596.5Q335 681 586 690L780 696L780 745Q780 915 606 915Q472 915 291 834L190 1040Q383 1141 618 1141Q843 1141 963 1043Q1083 945 1083 745L1083 0ZM780 518L662 514Q529 510 464 466Q399 422 399 332Q399 203 547 203Q653 203 716.5 264Q780 325 780 426Z"/></g><g transform="translate(2386.666666666666 2048) scale (1 -1)"><path d="M774 -20Q577 -20 465 123L449 123Q465 -17 465 -39L465 -492L160 -492L160 1118L408 1118L451 973L465 973Q572 1139 782 1139Q980 1139 1092 986Q1204 833 1204 561Q1204 382 1151.5 250Q1099 118 1002 49Q905 -20 774 -20ZM684 895Q571 895 519 825.5Q467 756 465 596L465 563Q465 383 518.5 305Q572 227 688 227Q893 227 893 565Q893 730 842.5 812.5Q792 895 684 895Z"/></g><g transform="translate(3682.666666666666 2048) scale (1 -1)"><path d="M1104 0L82 0L82 215L449 586Q612 753 662 817.5Q712 882 734 937Q756 992 756 1051Q756 1139 707.5 1182Q659 1225 578 1225Q493 1225 413 1186Q333 1147 246 1075L78 1274Q186 1366 257 1404Q328 1442 412 1462.5Q496 1483 600 1483Q737 1483 842 1433Q947 1383 1005 1293Q1063 1203 1063 1087Q1063 986 1027.5 897.5Q992 809 917.5 716Q843 623 655 451L467 274L467 260L1104 260Z"/></g><g transform="translate(4853.666666666666 2048) scale (1 -1)"><path d="M1096 731Q1096 348 970.5 164Q845 -20 584 -20Q331 -20 202.5 170Q74 360 74 731Q74 1118 199 1301.5Q324 1485 584 1485Q837 1485 966.5 1293Q1096 1101 1096 731ZM381 731Q381 462 427.5 345.5Q474 229 584 229Q692 229 740 347Q788 465 788 731Q788 1000 739.5 1117.5Q691 1235 584 1235Q475 1235 428 1117.5Q381 1000 381 731Z"/></g><g transform="translate(6024.666666666666 2048) scale (1 -1)"><path d="M1096 731Q1096 348 970.5 164Q845 -20 584 -20Q331 -20 202.5 170Q74 360 74 731Q74 1118 199 1301.5Q324 1485 584 1485Q837 1485 966.5 1293Q1096 1101 1096 731ZM381 731Q381 462 427.5 345.5Q474 229 584 229Q692 229 740 347Q788 465 788 731Q788 1000 739.5 1117.5Q691 1235 584 1235Q475 1235 428 1117.5Q381 1000 381 731Z"/></g><g transform="translate(7195.666666666666 2048) scale (1 -1)"><path d="M1096 731Q1096 348 970.5 164Q845 -20 584 -20Q331 -20 202.5 170Q74 360 74 731Q74 1118 199 1301.5Q324 1485 584 1485Q837 1485 966.5 1293Q1096 1101 1096 731ZM381 731Q381 462 427.5 345.5Q474 229 584 229Q692 229 740 347Q788 465 788 731Q788 1000 739.5 1117.5Q691 1235 584 1235Q475 1235 428 1117.5Q381 1000 381 731Z"/></g><g transform="translate(8366.666666666666 2048) scale (1 -1)"><path d="M1608 0L1255 0L1057 768Q1046 809 1019.5 937.5Q993 1066 989 1110Q983 1056 959 936.5Q935 817 922 766L725 0L373 0L0 1462L305 1462L492 664Q541 443 563 281Q569 338 590.5 457.5Q612 577 631 643L844 1462L1137 1462L1350 643Q1364 588 1385 475Q1406 362 1417 281Q1427 359 1449 475.5Q1471 592 1489 664L1675 1462L1980 1462Z"/></g><g transform="translate(10346.666666666666 2048) scale (1 -1)"><path d="M784 1139Q846 1139 887 1130L864 844Q827 854 774 854Q628 854 546.5 779Q465 704 465 569L465 0L160 0L160 1118L391 1118L436 930L451 930Q503 1024 591.5 1081.5Q680 1139 784 1139Z"/></g><g transform="translate(11276.666666666666 2048) scale (1 -1)"><path d="M870 0L811 152L803 152Q726 55 644.5 17.5Q563 -20 432 -20Q271 -20 178.5 72Q86 164 86 334Q86 512 210.5 596.5Q335 681 586 690L780 696L780 745Q780 915 606 915Q472 915 291 834L190 1040Q383 1141 618 1141Q843 1141 963 1043Q1083 945 1083 745L1083 0ZM780 518L662 514Q529 510 464 466Q399 422 399 332Q399 203 547 203Q653 203 716.5 264Q780 325 780 426Z"/></g><g transform="translate(12513.666666666666 2048) scale (1 -1)"><path d="M774 -20Q577 -20 465 123L449 123Q465 -17 465 -39L465 -492L160 -492L160 1118L408 1118L451 973L465 973Q572 1139 782 1139Q980 1139 1092 986Q1204 833 1204 561Q1204 382 1151.5 250Q1099 118 1002 49Q905 -20 774 -20ZM684 895Q571 895 519 825.5Q467 756 465 596L465 563Q465 383 518.5 305Q572 227 688 227Q893 227 893 565Q893 730 842.5 812.5Q792 895 684 895Z"/></g><g transform="translate(13809.666666666666 2048) scale (1 -1)"><path d="M774 -20Q577 -20 465 123L449 123Q465 -17 465 -39L465 -492L160 -492L160 1118L408 1118L451 973L465 973Q572 1139 782 1139Q980 1139 1092 986Q1204 833 1204 561Q1204 382 1151.5 250Q1099 118 1002 49Q905 -20 774 -20ZM684 895Q571 895 519 825.5Q467 756 465 596L465 563Q465 383 518.5 305Q572 227 688 227Q893 227 893 565Q893 730 842.5 812.5Q792 895 684 895Z"/></g><g transform="translate(15105.666666666666 2048) scale (1 -1)"><path d="M623 922Q526 922 471 860.5Q416 799 408 686L836 686Q834 799 777 860.5Q720 922 623 922ZM666 -20Q396 -20 244 129Q92 278 92 551Q92 832 232.5 985.5Q373 1139 621 1139Q858 1139 990 1004Q1122 869 1122 631L1122 483L401 483Q406 353 478 280Q550 207 680 207Q781 207 871 228Q961 249 1059 295L1059 59Q979 19 888 -0.5Q797 -20 666 -20Z"/></g><g transform="translate(16315.666666666666 2048) scale (1 -1)"><path d="M784 1139Q846 1139 887 1130L864 844Q827 854 774 854Q628 854 546.5 779Q465 704 465 569L465 0L160 0L160 1118L391 1118L436 930L451 930Q503 1024 591.5 1081.5Q680 1139 784 1139Z"/></g></g></g><g transform="translate(159,115)"><rect x="0" y="0" width="59" height="30" border="1" rx="10" ry="10" style="fill:#E0E0E0;stroke:#707070;stroke-width:1px;"/><g transform="translate (6 6) scale(0.005859375)" style="fill:#4F4F4F;"><g transform="translate(13.166666666666515 2048) scale (1 -1)"><path d="M1079 0L973 348L440 348L334 0L0 0L516 1468L895 1468L1413 0ZM899 608Q752 1081 733.5 1143Q715 1205 707 1241Q674 1113 518 608Z"/></g><g transform="translate(1426.1666666666665 2048) scale (1 -1)"><path d="M1192 0L887 0L887 653Q887 774 844 834.5Q801 895 707 895Q579 895 522 809.5Q465 724 465 526L465 0L160 0L160 1118L393 1118L434 975L451 975Q502 1056 591.5 1097.5Q681 1139 795 1139Q990 1139 1091 1033.5Q1192 928 1192 729Z"/></g><g transform="translate(2772.1666666666665 2048) scale (1 -1)"><path d="M870 0L811 152L803 152Q726 55 644.5 17.5Q563 -20 432 -20Q271 -20 178.5 72Q86 164 86 334Q86 512 210.5 596.5Q335 681 586 690L780 696L780 745Q780 915 606 915Q472 915 291 834L190 1040Q383 1141 618 1141Q843 1141 963 1043Q1083 945 1083 745L1083 0ZM780 518L662 514Q529 510 464 466Q399 422 399 332Q399 203 547 203Q653 203 716.5 264Q780 325 780 426Z"/></g><g transform="translate(4009.1666666666665 2048) scale (1 -1)"><path d="M465 0L160 0L160 1556L465 1556Z"/></g><g transform="translate(4634.166666666666 2048) scale (1 -1)"><path d="M0 1118L334 1118L545 489Q572 407 582 295L588 295Q599 398 631 489L838 1118L1165 1118L692 -143Q627 -318 506.5 -405Q386 -492 225 -492Q146 -492 70 -475L70 -233Q125 -246 190 -246Q271 -246 331.5 -196.5Q392 -147 426 -47L444 8Z"/></g><g transform="translate(5799.166666666666 2048) scale (1 -1)"><path d="M938 0L55 0L55 180L573 885L86 885L86 1118L920 1118L920 920L416 233L938 233Z"/></g><g transform="translate(6798.166666666666 2048) scale (1 -1)"><path d="M623 922Q526 922 471 860.5Q416 799 408 686L836 686Q834 799 777 860.5Q720 922 623 922ZM666 -20Q396 -20 244 129Q92 278 92 551Q92 832 232.5 985.5Q373 1139 621 1139Q858 1139 990 1004Q1122 869 1122 631L1122 483L401 483Q406 353 478 280Q550 207 680 207Q781 207 871 228Q961 249 1059 295L1059 59Q979 19 888 -0.5Q797 -20 666 -20Z"/></g></g></g><g transform="translate(238,115)"><rect x="0" y="0" width="48" height="30" border="1" rx="10" ry="10" style="fill:#E0E0E0;stroke:#707070;stroke-width:1px;"/><g transform="translate (6 6) scale(0.005859375)" style="fill:#4F4F4F;"><g transform="translate(14.5 2048) scale (1 -1)"><path d="M1047 406Q1047 208 904.5 94Q762 -20 508 -20Q274 -20 94 68L94 356Q242 290 344.5 263Q447 236 532 236Q634 236 688.5 275Q743 314 743 391Q743 434 719 467.5Q695 501 648.5 532Q602 563 459 631Q325 694 258 752Q191 810 151 887Q111 964 111 1067Q111 1261 242.5 1372Q374 1483 606 1483Q720 1483 823.5 1456Q927 1429 1040 1380L940 1139Q823 1187 746.5 1206Q670 1225 596 1225Q508 1225 461 1184Q414 1143 414 1077Q414 1036 433 1005.5Q452 975 493.5 946.5Q535 918 690 844Q895 746 971 647.5Q1047 549 1047 406Z"/></g><g transform="translate(1142.5 2048) scale (1 -1)"><path d="M623 922Q526 922 471 860.5Q416 799 408 686L836 686Q834 799 777 860.5Q720 922 623 922ZM666 -20Q396 -20 244 129Q92 278 92 551Q92 832 232.5 985.5Q373 1139 621 1139Q858 1139 990 1004Q1122 869 1122 631L1122 483L401 483Q406 353 478 280Q550 207 680 207Q781 207 871 228Q961 249 1059 295L1059 59Q979 19 888 -0.5Q797 -20 666 -20Z"/></g><g transform="translate(2352.5 2048) scale (1 -1)"><path d="M465 0L160 0L160 1556L465 1556Z"/></g><g transform="translate(2977.5 2048) scale (1 -1)"><path d="M623 922Q526 922 471 860.5Q416 799 408 686L836 686Q834 799 777 860.5Q720 922 623 922ZM666 -20Q396 -20 244 129Q92 278 92 551Q92 832 232.5 985.5Q373 1139 621 1139Q858 1139 990 1004Q1122 869 1122 631L1122 483L401 483Q406 353 478 280Q550 207 680 207Q781 207 871 228Q961 249 1059 295L1059 59Q979 19 888 -0.5Q797 -20 666 -20Z"/></g><g transform="translate(4187.5 2048) scale (1 -1)"><path d="M614 -20Q92 -20 92 553Q92 838 234 988.5Q376 1139 641 1139Q835 1139 989 1063L899 827Q827 856 765 874.5Q703 893 641 893Q403 893 403 555Q403 227 641 227Q729 227 804 250.5Q879 274 954 324L954 63Q880 16 804.5 -2Q729 -20 614 -20Z"/></g><g transform="translate(5240.5 2048) scale (1 -1)"><path d="M631 223Q711 223 823 258L823 31Q709 -20 543 -20Q360 -20 276.5 72.5Q193 165 193 350L193 889L47 889L47 1018L215 1120L303 1356L498 1356L498 1118L811 1118L811 889L498 889L498 350Q498 285 534.5 254Q571 223 631 223Z"/></g></g></g><g transform="translate(306,115)"><rect x="0" y="0" width="63" height="30" border="1" rx="10" ry="10" style="fill:#E0E0E0;stroke:#707070;stroke-width:1px;"/><g transform="translate (6 6) scale(0.005859375)" style="fill:#4F4F4F;"><g transform="translate(10 2048) scale (1 -1)"><path d="M803 0L451 1147L442 1147Q461 797 461 680L461 0L184 0L184 1462L606 1462L952 344L958 344L1325 1462L1747 1462L1747 0L1458 0L1458 692Q1458 741 1459.5 805Q1461 869 1473 1145L1464 1145L1087 0Z"/></g><g transform="translate(1941 2048) scale (1 -1)"><path d="M870 0L811 152L803 152Q726 55 644.5 17.5Q563 -20 432 -20Q271 -20 178.5 72Q86 164 86 334Q86 512 210.5 596.5Q335 681 586 690L780 696L780 745Q780 915 606 915Q472 915 291 834L190 1040Q383 1141 618 1141Q843 1141 963 1043Q1083 945 1083 745L1083 0ZM780 518L662 514Q529 510 464 466Q399 422 399 332Q399 203 547 203Q653 203 716.5 264Q780 325 780 426Z"/></g><g transform="translate(3178 2048) scale (1 -1)"><path d="M631 223Q711 223 823 258L823 31Q709 -20 543 -20Q360 -20 276.5 72.5Q193 165 193 350L193 889L47 889L47 1018L215 1120L303 1356L498 1356L498 1118L811 1118L811 889L498 889L498 350Q498 285 534.5 254Q571 223 631 223Z"/></g><g transform="translate(4067 2048) scale (1 -1)"><path d="M623 922Q526 922 471 860.5Q416 799 408 686L836 686Q834 799 777 860.5Q720 922 623 922ZM666 -20Q396 -20 244 129Q92 278 92 551Q92 832 232.5 985.5Q373 1139 621 1139Q858 1139 990 1004Q1122 869 1122 631L1122 483L401 483Q406 353 478 280Q550 207 680 207Q781 207 871 228Q961 249 1059 295L1059 59Q979 19 888 -0.5Q797 -20 666 -20Z"/></g><g transform="translate(5277 2048) scale (1 -1)"><path d="M784 1139Q846 1139 887 1130L864 844Q827 854 774 854Q628 854 546.5 779Q465 704 465 569L465 0L160 0L160 1118L391 1118L436 930L451 930Q503 1024 591.5 1081.5Q680 1139 784 1139Z"/></g><g transform="translate(6207 2048) scale (1 -1)"><path d="M147 1407Q147 1556 313 1556Q479 1556 479 1407Q479 1336 437.5 1296.5Q396 1257 313 1257Q147 1257 147 1407ZM465 0L160 0L160 1118L465 1118Z"/></g><g transform="translate(6832 2048) scale (1 -1)"><path d="M870 0L811 152L803 152Q726 55 644.5 17.5Q563 -20 432 -20Q271 -20 178.5 72Q86 164 86 334Q86 512 210.5 596.5Q335 681 586 690L780 696L780 745Q780 915 606 915Q472 915 291 834L190 1040Q383 1141 618 1141Q843 1141 963 1043Q1083 945 1083 745L1083 0ZM780 518L662 514Q529 510 464 466Q399 422 399 332Q399 203 547 203Q653 203 716.5 264Q780 325 780 426Z"/></g><g transform="translate(8069 2048) scale (1 -1)"><path d="M465 0L160 0L160 1556L465 1556Z"/></g></g></g><g transform="translate(313,245)"><rect x="0" y="0" width="48" height="30" border="1" rx="10" ry="10" style="fill:#E0E0E0;stroke:#707070;stroke-width:1px;"/><g transform="translate (6 6) scale(0.005859375)" style="fill:#4F4F4F;"><g transform="translate(59.5 2048) scale (1 -1)"><path d="M494 813L594 813Q741 813 811 862Q881 911 881 1016Q881 1120 809.5 1164Q738 1208 588 1208L494 1208ZM494 561L494 0L184 0L184 1462L610 1462Q908 1462 1051 1353.5Q1194 1245 1194 1024Q1194 895 1123 794.5Q1052 694 922 637L1352 0L1008 0L659 561Z"/></g><g transform="translate(1411.5 2048) scale (1 -1)"><path d="M623 922Q526 922 471 860.5Q416 799 408 686L836 686Q834 799 777 860.5Q720 922 623 922ZM666 -20Q396 -20 244 129Q92 278 92 551Q92 832 232.5 985.5Q373 1139 621 1139Q858 1139 990 1004Q1122 869 1122 631L1122 483L401 483Q406 353 478 280Q550 207 680 207Q781 207 871 228Q961 249 1059 295L1059 59Q979 19 888 -0.5Q797 -20 666 -20Z"/></g><g transform="translate(2621.5 2048) scale (1 -1)"><path d="M782 1139Q980 1139 1092 984.5Q1204 830 1204 561Q1204 284 1088.5 132Q973 -20 774 -20Q577 -20 465 123L444 123L393 0L160 0L160 1556L465 1556L465 1194Q465 1125 453 973L465 973Q572 1139 782 1139ZM684 895Q571 895 519 825.5Q467 756 465 596L465 563Q465 383 518.5 305Q572 227 688 227Q782 227 837.5 313.5Q893 400 893 565Q893 730 837 812.5Q781 895 684 895Z"/></g><g transform="translate(3917.5 2048) scale (1 -1)"><path d="M870 0L811 152L803 152Q726 55 644.5 17.5Q563 -20 432 -20Q271 -20 178.5 72Q86 164 86 334Q86 512 210.5 596.5Q335 681 586 690L780 696L780 745Q780 915 606 915Q472 915 291 834L190 1040Q383 1141 618 1141Q843 1141 963 1043Q1083 945 1083 745L1083 0ZM780 518L662 514Q529 510 464 466Q399 422 399 332Q399 203 547 203Q653 203 716.5 264Q780 325 780 426Z"/></g><g transform="translate(5154.5 2048) scale (1 -1)"><path d="M784 1139Q846 1139 887 1130L864 844Q827 854 774 854Q628 854 546.5 779Q465 704 465 569L465 0L160 0L160 1118L391 1118L436 930L451 930Q503 1024 591.5 1081.5Q680 1139 784 1139Z"/></g></g></g><g transform="translate(-124,115)"><rect x="0" y="0" width="45" height="30" border="1" rx="10" ry="10" style="fill:#E0E0E0;stroke:#707070;stroke-width:1px;"/><g transform="translate (6 6) scale(0.005859375)" style="fill:#4F4F4F;"><g transform="translate(79 2048) scale (1 -1)"><path d="M748 0L438 0L438 1204L41 1204L41 1462L1145 1462L1145 1204L748 1204Z"/></g><g transform="translate(1265 2048) scale (1 -1)"><path d="M870 0L811 152L803 152Q726 55 644.5 17.5Q563 -20 432 -20Q271 -20 178.5 72Q86 164 86 334Q86 512 210.5 596.5Q335 681 586 690L780 696L780 745Q780 915 606 915Q472 915 291 834L190 1040Q383 1141 618 1141Q843 1141 963 1043Q1083 945 1083 745L1083 0ZM780 518L662 514Q529 510 464 466Q399 422 399 332Q399 203 547 203Q653 203 716.5 264Q780 325 780 426Z"/></g><g transform="translate(2502 2048) scale (1 -1)"><path d="M782 1139Q980 1139 1092 984.5Q1204 830 1204 561Q1204 284 1088.5 132Q973 -20 774 -20Q577 -20 465 123L444 123L393 0L160 0L160 1556L465 1556L465 1194Q465 1125 453 973L465 973Q572 1139 782 1139ZM684 895Q571 895 519 825.5Q467 756 465 596L465 563Q465 383 518.5 305Q572 227 688 227Q782 227 837.5 313.5Q893 400 893 565Q893 730 837 812.5Q781 895 684 895Z"/></g><g transform="translate(3798 2048) scale (1 -1)"><path d="M465 0L160 0L160 1556L465 1556Z"/></g><g transform="translate(4423 2048) scale (1 -1)"><path d="M623 922Q526 922 471 860.5Q416 799 408 686L836 686Q834 799 777 860.5Q720 922 623 922ZM666 -20Q396 -20 244 129Q92 278 92 551Q92 832 232.5 985.5Q373 1139 621 1139Q858 1139 990 1004Q1122 869 1122 631L1122 483L401 483Q406 353 478 280Q550 207 680 207Q781 207 871 228Q961 249 1059 295L1059 59Q979 19 888 -0.5Q797 -20 666 -20Z"/></g></g></g><g transform="translate(-186,115)"><rect x="0" y="0" width="42" height="30" border="1" rx="10" ry="10" style="fill:#E0E0E0;stroke:#707070;stroke-width:1px;"/><g transform="translate (6 6) scale(0.005859375)" style="fill:#4F4F4F;"><g transform="translate(81 2048) scale (1 -1)"><path d="M184 0L184 1462L494 1462L494 256L1087 256L1087 0Z"/></g><g transform="translate(1238 2048) scale (1 -1)"><path d="M403 561Q403 395 457.5 310Q512 225 635 225Q757 225 810.5 309.5Q864 394 864 561Q864 727 810 810Q756 893 633 893Q511 893 457 810.5Q403 728 403 561ZM1176 561Q1176 288 1032 134Q888 -20 631 -20Q470 -20 347 50.5Q224 121 158 253Q92 385 92 561Q92 835 235 987Q378 1139 637 1139Q798 1139 921 1069Q1044 999 1110 868Q1176 737 1176 561Z"/></g><g transform="translate(2506 2048) scale (1 -1)"><path d="M870 0L811 152L803 152Q726 55 644.5 17.5Q563 -20 432 -20Q271 -20 178.5 72Q86 164 86 334Q86 512 210.5 596.5Q335 681 586 690L780 696L780 745Q780 915 606 915Q472 915 291 834L190 1040Q383 1141 618 1141Q843 1141 963 1043Q1083 945 1083 745L1083 0ZM780 518L662 514Q529 510 464 466Q399 422 399 332Q399 203 547 203Q653 203 716.5 264Q780 325 780 426Z"/></g><g transform="translate(3743 2048) scale (1 -1)"><path d="M514 -20Q317 -20 204.5 133Q92 286 92 557Q92 832 206.5 985.5Q321 1139 522 1139Q733 1139 844 975L854 975Q831 1100 831 1198L831 1556L1137 1556L1137 0L903 0L844 145L831 145Q727 -20 514 -20ZM621 223Q738 223 792.5 291Q847 359 852 522L852 555Q852 735 796.5 813Q741 891 616 891Q514 891 457.5 804.5Q401 718 401 553Q401 388 458 305.5Q515 223 621 223Z"/></g></g></g><g transform="translate(-296,245)"><rect x="0" y="0" width="58" height="30" border="1" rx="10" ry="10" style="fill:#E0E0E0;stroke:#707070;stroke-width:1px;"/><g transform="translate (6 6) scale(0.005859375)" style="fill:#4F4F4F;"><g transform="translate(31.833333333333485 2048) scale (1 -1)"><path d="M494 774L596 774Q739 774 810 830.5Q881 887 881 995Q881 1104 821.5 1156Q762 1208 635 1208L494 1208ZM1194 1006Q1194 770 1046.5 645Q899 520 627 520L494 520L494 0L184 0L184 1462L651 1462Q917 1462 1055.5 1347.5Q1194 1233 1194 1006Z"/></g><g transform="translate(1317.8333333333335 2048) scale (1 -1)"><path d="M870 0L811 152L803 152Q726 55 644.5 17.5Q563 -20 432 -20Q271 -20 178.5 72Q86 164 86 334Q86 512 210.5 596.5Q335 681 586 690L780 696L780 745Q780 915 606 915Q472 915 291 834L190 1040Q383 1141 618 1141Q843 1141 963 1043Q1083 945 1083 745L1083 0ZM780 518L662 514Q529 510 464 466Q399 422 399 332Q399 203 547 203Q653 203 716.5 264Q780 325 780 426Z"/></g><g transform="translate(2554.8333333333335 2048) scale (1 -1)"><path d="M631 223Q711 223 823 258L823 31Q709 -20 543 -20Q360 -20 276.5 72.5Q193 165 193 350L193 889L47 889L47 1018L215 1120L303 1356L498 1356L498 1118L811 1118L811 889L498 889L498 350Q498 285 534.5 254Q571 223 631 223Z"/></g><g transform="translate(3443.8333333333335 2048) scale (1 -1)"><path d="M631 223Q711 223 823 258L823 31Q709 -20 543 -20Q360 -20 276.5 72.5Q193 165 193 350L193 889L47 889L47 1018L215 1120L303 1356L498 1356L498 1118L811 1118L811 889L498 889L498 350Q498 285 534.5 254Q571 223 631 223Z"/></g><g transform="translate(4332.833333333334 2048) scale (1 -1)"><path d="M623 922Q526 922 471 860.5Q416 799 408 686L836 686Q834 799 777 860.5Q720 922 623 922ZM666 -20Q396 -20 244 129Q92 278 92 551Q92 832 232.5 985.5Q373 1139 621 1139Q858 1139 990 1004Q1122 869 1122 631L1122 483L401 483Q406 353 478 280Q550 207 680 207Q781 207 871 228Q961 249 1059 295L1059 59Q979 19 888 -0.5Q797 -20 666 -20Z"/></g><g transform="translate(5542.833333333334 2048) scale (1 -1)"><path d="M784 1139Q846 1139 887 1130L864 844Q827 854 774 854Q628 854 546.5 779Q465 704 465 569L465 0L160 0L160 1118L391 1118L436 930L451 930Q503 1024 591.5 1081.5Q680 1139 784 1139Z"/></g><g transform="translate(6472.833333333334 2048) scale (1 -1)"><path d="M1192 0L887 0L887 653Q887 774 844 834.5Q801 895 707 895Q579 895 522 809.5Q465 724 465 526L465 0L160 0L160 1118L393 1118L434 975L451 975Q502 1056 591.5 1097.5Q681 1139 795 1139Q990 1139 1091 1033.5Q1192 928 1192 729Z"/></g></g></g><g transform="translate(-218,245)"><rect x="0" y="0" width="40" height="30" border="1" rx="10" ry="10" style="fill:#E0E0E0;stroke:#707070;stroke-width:1px;"/><g transform="translate (6 6) scale(0.005859375)" style="fill:#4F4F4F;"><g transform="translate(4.333333333333485 2048) scale (1 -1)"><path d="M805 1225Q630 1225 534 1093.5Q438 962 438 727Q438 238 805 238Q959 238 1178 315L1178 55Q998 -20 776 -20Q457 -20 288 173.5Q119 367 119 729Q119 957 202 1128.5Q285 1300 440.5 1391.5Q596 1483 805 1483Q1018 1483 1233 1380L1133 1128Q1051 1167 968 1196Q885 1225 805 1225Z"/></g><g transform="translate(1309.3333333333335 2048) scale (1 -1)"><path d="M870 0L811 152L803 152Q726 55 644.5 17.5Q563 -20 432 -20Q271 -20 178.5 72Q86 164 86 334Q86 512 210.5 596.5Q335 681 586 690L780 696L780 745Q780 915 606 915Q472 915 291 834L190 1040Q383 1141 618 1141Q843 1141 963 1043Q1083 945 1083 745L1083 0ZM780 518L662 514Q529 510 464 466Q399 422 399 332Q399 203 547 203Q653 203 716.5 264Q780 325 780 426Z"/></g><g transform="translate(2546.3333333333335 2048) scale (1 -1)"><path d="M940 332Q940 160 820.5 70Q701 -20 463 -20Q341 -20 255 -3.5Q169 13 94 45L94 297Q179 257 285.5 230Q392 203 473 203Q639 203 639 299Q639 335 617 357.5Q595 380 541 408.5Q487 437 397 475Q268 529 207.5 575Q147 621 119.5 680.5Q92 740 92 827Q92 976 207.5 1057.5Q323 1139 535 1139Q737 1139 928 1051L836 831Q752 867 679 890Q606 913 530 913Q395 913 395 840Q395 799 438.5 769Q482 739 629 680Q760 627 821 581Q882 535 911 475Q940 415 940 332Z"/></g><g transform="translate(3564.3333333333335 2048) scale (1 -1)"><path d="M623 922Q526 922 471 860.5Q416 799 408 686L836 686Q834 799 777 860.5Q720 922 623 922ZM666 -20Q396 -20 244 129Q92 278 92 551Q92 832 232.5 985.5Q373 1139 621 1139Q858 1139 990 1004Q1122 869 1122 631L1122 483L401 483Q406 353 478 280Q550 207 680 207Q781 207 871 228Q961 249 1059 295L1059 59Q979 19 888 -0.5Q797 -20 666 -20Z"/></g></g></g><g transform="translate(-158,245)"><rect x="0" y="0" width="54" height="30" border="1" rx="10" ry="10" style="fill:#E0E0E0;stroke:#707070;stroke-width:1px;"/><g transform="translate (6 6) scale(0.005859375)" style="fill:#4F4F4F;"><g transform="translate(10 2048) scale (1 -1)"><path d="M805 1225Q630 1225 534 1093.5Q438 962 438 727Q438 238 805 238Q959 238 1178 315L1178 55Q998 -20 776 -20Q457 -20 288 173.5Q119 367 119 729Q119 957 202 1128.5Q285 1300 440.5 1391.5Q596 1483 805 1483Q1018 1483 1233 1380L1133 1128Q1051 1167 968 1196Q885 1225 805 1225Z"/></g><g transform="translate(1315 2048) scale (1 -1)"><path d="M403 561Q403 395 457.5 310Q512 225 635 225Q757 225 810.5 309.5Q864 394 864 561Q864 727 810 810Q756 893 633 893Q511 893 457 810.5Q403 728 403 561ZM1176 561Q1176 288 1032 134Q888 -20 631 -20Q470 -20 347 50.5Q224 121 158 253Q92 385 92 561Q92 835 235 987Q378 1139 637 1139Q798 1139 921 1069Q1044 999 1110 868Q1176 737 1176 561Z"/></g><g transform="translate(2583 2048) scale (1 -1)"><path d="M1161 0L856 0L856 653Q856 774 815.5 834.5Q775 895 688 895Q571 895 518 809Q465 723 465 526L465 0L160 0L160 1118L393 1118L434 975L451 975Q496 1052 581 1095.5Q666 1139 776 1139Q1027 1139 1116 975L1143 975Q1188 1053 1275.5 1096Q1363 1139 1473 1139Q1663 1139 1760.5 1041.5Q1858 944 1858 729L1858 0L1552 0L1552 653Q1552 774 1511.5 834.5Q1471 895 1384 895Q1272 895 1216.5 815Q1161 735 1161 561Z"/></g><g transform="translate(4594 2048) scale (1 -1)"><path d="M782 1139Q980 1139 1092 984.5Q1204 830 1204 561Q1204 284 1088.5 132Q973 -20 774 -20Q577 -20 465 123L444 123L393 0L160 0L160 1556L465 1556L465 1194Q465 1125 453 973L465 973Q572 1139 782 1139ZM684 895Q571 895 519 825.5Q467 756 465 596L465 563Q465 383 518.5 305Q572 227 688 227Q782 227 837.5 313.5Q893 400 893 565Q893 730 837 812.5Q781 895 684 895Z"/></g><g transform="translate(5890 2048) scale (1 -1)"><path d="M403 561Q403 395 457.5 310Q512 225 635 225Q757 225 810.5 309.5Q864 394 864 561Q864 727 810 810Q756 893 633 893Q511 893 457 810.5Q403 728 403 561ZM1176 561Q1176 288 1032 134Q888 -20 631 -20Q470 -20 347 50.5Q224 121 158 253Q92 385 92 561Q92 835 235 987Q378 1139 637 1139Q798 1139 921 1069Q1044 999 1110 868Q1176 737 1176 561Z"/></g></g></g><g transform="translate(-84,245)"><rect x="0" y="0" width="50" height="30" border="1" rx="10" ry="10" style="fill:#E0E0E0;stroke:#707070;stroke-width:1px;"/><g transform="translate (6 6) scale(0.005859375)" style="fill:#4F4F4F;"><g transform="translate(64.16666666666652 2048) scale (1 -1)"><path d="M803 0L451 1147L442 1147Q461 797 461 680L461 0L184 0L184 1462L606 1462L952 344L958 344L1325 1462L1747 1462L1747 0L1458 0L1458 692Q1458 741 1459.5 805Q1461 869 1473 1145L1464 1145L1087 0Z"/></g><g transform="translate(1995.1666666666665 2048) scale (1 -1)"><path d="M403 561Q403 395 457.5 310Q512 225 635 225Q757 225 810.5 309.5Q864 394 864 561Q864 727 810 810Q756 893 633 893Q511 893 457 810.5Q403 728 403 561ZM1176 561Q1176 288 1032 134Q888 -20 631 -20Q470 -20 347 50.5Q224 121 158 253Q92 385 92 561Q92 835 235 987Q378 1139 637 1139Q798 1139 921 1069Q1044 999 1110 868Q1176 737 1176 561Z"/></g><g transform="translate(3263.1666666666665 2048) scale (1 -1)"><path d="M514 -20Q317 -20 204.5 133Q92 286 92 557Q92 832 206.5 985.5Q321 1139 522 1139Q733 1139 844 975L854 975Q831 1100 831 1198L831 1556L1137 1556L1137 0L903 0L844 145L831 145Q727 -20 514 -20ZM621 223Q738 223 792.5 291Q847 359 852 522L852 555Q852 735 796.5 813Q741 891 616 891Q514 891 457.5 804.5Q401 718 401 553Q401 388 458 305.5Q515 223 621 223Z"/></g><g transform="translate(4559.166666666666 2048) scale (1 -1)"><path d="M870 0L811 152L803 152Q726 55 644.5 17.5Q563 -20 432 -20Q271 -20 178.5 72Q86 164 86 334Q86 512 210.5 596.5Q335 681 586 690L780 696L780 745Q780 915 606 915Q472 915 291 834L190 1040Q383 1141 618 1141Q843 1141 963 1043Q1083 945 1083 745L1083 0ZM780 518L662 514Q529 510 464 466Q399 422 399 332Q399 203 547 203Q653 203 716.5 264Q780 325 780 426Z"/></g><g transform="translate(5796.166666666666 2048) scale (1 -1)"><path d="M465 0L160 0L160 1556L465 1556Z"/></g></g></g><g transform="translate(-109,375)"><rect x="0" y="0" width="45" height="30" border="1" rx="10" ry="10" style="fill:#E0E0E0;stroke:#707070;stroke-width:1px;"/><g transform="translate (6 6) scale(0.005859375)" style="fill:#4F4F4F;"><g transform="translate(4 2048) scale (1 -1)"><path d="M1026 0L184 0L184 1462L1026 1462L1026 1208L494 1208L494 887L989 887L989 633L494 633L494 256L1026 256Z"/></g><g transform="translate(1151 2048) scale (1 -1)"><path d="M147 1407Q147 1556 313 1556Q479 1556 479 1407Q479 1336 437.5 1296.5Q396 1257 313 1257Q147 1257 147 1407ZM465 0L160 0L160 1118L465 1118Z"/></g><g transform="translate(1776 2048) scale (1 -1)"><path d="M623 219Q746 219 799 289.5Q852 360 852 518L852 555Q852 734 796.5 812.5Q741 891 618 891Q403 891 403 553Q403 385 456.5 302Q510 219 623 219ZM1137 -2Q1137 -243 996.5 -367.5Q856 -492 578 -492Q333 -492 160 -426L160 -182Q363 -268 596 -268Q831 -268 831 -14L831 8L840 145L831 145Q724 -20 514 -20Q313 -20 202.5 135Q92 290 92 557Q92 832 206.5 985.5Q321 1139 522 1139Q728 1139 846 975L854 975L879 1118L1137 1118Z"/></g><g transform="translate(3072 2048) scale (1 -1)"><path d="M623 922Q526 922 471 860.5Q416 799 408 686L836 686Q834 799 777 860.5Q720 922 623 922ZM666 -20Q396 -20 244 129Q92 278 92 551Q92 832 232.5 985.5Q373 1139 621 1139Q858 1139 990 1004Q1122 869 1122 631L1122 483L401 483Q406 353 478 280Q550 207 680 207Q781 207 871 228Q961 249 1059 295L1059 59Q979 19 888 -0.5Q797 -20 666 -20Z"/></g><g transform="translate(4282 2048) scale (1 -1)"><path d="M1192 0L887 0L887 653Q887 774 844 834.5Q801 895 707 895Q579 895 522 809.5Q465 724 465 526L465 0L160 0L160 1118L393 1118L434 975L451 975Q502 1056 591.5 1097.5Q681 1139 795 1139Q990 1139 1091 1033.5Q1192 928 1192 729Z"/></g></g></g><g transform="translate(-44,375)"><rect x="0" y="0" width="35" height="30" border="1" rx="10" ry="10" style="fill:#E0E0E0;stroke:#707070;stroke-width:1px;"/><g transform="translate (6 6) scale(0.005859375)" style="fill:#4F4F4F;"><g transform="translate(30.166666666666742 2048) scale (1 -1)"><path d="M494 813L594 813Q741 813 811 862Q881 911 881 1016Q881 1120 809.5 1164Q738 1208 588 1208L494 1208ZM494 561L494 0L184 0L184 1462L610 1462Q908 1462 1051 1353.5Q1194 1245 1194 1024Q1194 895 1123 794.5Q1052 694 922 637L1352 0L1008 0L659 561Z"/></g><g transform="translate(1382.1666666666667 2048) scale (1 -1)"><path d="M147 1407Q147 1556 313 1556Q479 1556 479 1407Q479 1336 437.5 1296.5Q396 1257 313 1257Q147 1257 147 1407ZM465 0L160 0L160 1118L465 1118Z"/></g><g transform="translate(2007.1666666666667 2048) scale (1 -1)"><path d="M631 223Q711 223 823 258L823 31Q709 -20 543 -20Q360 -20 276.5 72.5Q193 165 193 350L193 889L47 889L47 1018L215 1120L303 1356L498 1356L498 1118L811 1118L811 889L498 889L498 350Q498 285 534.5 254Q571 223 631 223Z"/></g><g transform="translate(2896.166666666667 2048) scale (1 -1)"><path d="M938 0L55 0L55 180L573 885L86 885L86 1118L920 1118L920 920L416 233L938 233Z"/></g></g></g><g transform="translate(-368,115)"><rect x="0" y="0" width="56" height="30" border="1" rx="10" ry="10" style="fill:#E0E0E0;stroke:#707070;stroke-width:1px;"/><g transform="translate (6 6) scale(0.005859375)" style="fill:#4F4F4F;"><g transform="translate(25.666666666666515 2048) scale (1 -1)"><path d="M494 813L594 813Q741 813 811 862Q881 911 881 1016Q881 1120 809.5 1164Q738 1208 588 1208L494 1208ZM494 561L494 0L184 0L184 1462L610 1462Q908 1462 1051 1353.5Q1194 1245 1194 1024Q1194 895 1123 794.5Q1052 694 922 637L1352 0L1008 0L659 561Z"/></g><g transform="translate(1377.6666666666665 2048) scale (1 -1)"><path d="M623 922Q526 922 471 860.5Q416 799 408 686L836 686Q834 799 777 860.5Q720 922 623 922ZM666 -20Q396 -20 244 129Q92 278 92 551Q92 832 232.5 985.5Q373 1139 621 1139Q858 1139 990 1004Q1122 869 1122 631L1122 483L401 483Q406 353 478 280Q550 207 680 207Q781 207 871 228Q961 249 1059 295L1059 59Q979 19 888 -0.5Q797 -20 666 -20Z"/></g><g transform="translate(2587.6666666666665 2048) scale (1 -1)"><path d="M940 332Q940 160 820.5 70Q701 -20 463 -20Q341 -20 255 -3.5Q169 13 94 45L94 297Q179 257 285.5 230Q392 203 473 203Q639 203 639 299Q639 335 617 357.5Q595 380 541 408.5Q487 437 397 475Q268 529 207.5 575Q147 621 119.5 680.5Q92 740 92 827Q92 976 207.5 1057.5Q323 1139 535 1139Q737 1139 928 1051L836 831Q752 867 679 890Q606 913 530 913Q395 913 395 840Q395 799 438.5 769Q482 739 629 680Q760 627 821 581Q882 535 911 475Q940 415 940 332Z"/></g><g transform="translate(3605.6666666666665 2048) scale (1 -1)"><path d="M952 0L911 143L895 143Q846 65 756 22.5Q666 -20 551 -20Q354 -20 254 85.5Q154 191 154 389L154 1118L459 1118L459 465Q459 344 502 283.5Q545 223 639 223Q767 223 824 308.5Q881 394 881 592L881 1118L1186 1118L1186 0Z"/></g><g transform="translate(4951.666666666666 2048) scale (1 -1)"><path d="M465 0L160 0L160 1556L465 1556Z"/></g><g transform="translate(5576.666666666666 2048) scale (1 -1)"><path d="M631 223Q711 223 823 258L823 31Q709 -20 543 -20Q360 -20 276.5 72.5Q193 165 193 350L193 889L47 889L47 1018L215 1120L303 1356L498 1356L498 1118L811 1118L811 889L498 889L498 350Q498 285 534.5 254Q571 223 631 223Z"/></g><g transform="translate(6465.666666666666 2048) scale (1 -1)"><path d="M940 332Q940 160 820.5 70Q701 -20 463 -20Q341 -20 255 -3.5Q169 13 94 45L94 297Q179 257 285.5 230Q392 203 473 203Q639 203 639 299Q639 335 617 357.5Q595 380 541 408.5Q487 437 397 475Q268 529 207.5 575Q147 621 119.5 680.5Q92 740 92 827Q92 976 207.5 1057.5Q323 1139 535 1139Q737 1139 928 1051L836 831Q752 867 679 890Q606 913 530 913Q395 913 395 840Q395 799 438.5 769Q482 739 629 680Q760 627 821 581Q882 535 911 475Q940 415 940 332Z"/></g></g></g><g transform="translate(-363,245)"><rect x="0" y="0" width="47" height="30" border="1" rx="10" ry="10" style="fill:#E0E0E0;stroke:#707070;stroke-width:1px;"/><g transform="translate (6 6) scale(0.005859375)" style="fill:#4F4F4F;"><g transform="translate(52.166666666666515 2048) scale (1 -1)"><path d="M1047 406Q1047 208 904.5 94Q762 -20 508 -20Q274 -20 94 68L94 356Q242 290 344.5 263Q447 236 532 236Q634 236 688.5 275Q743 314 743 391Q743 434 719 467.5Q695 501 648.5 532Q602 563 459 631Q325 694 258 752Q191 810 151 887Q111 964 111 1067Q111 1261 242.5 1372Q374 1483 606 1483Q720 1483 823.5 1456Q927 1429 1040 1380L940 1139Q823 1187 746.5 1206Q670 1225 596 1225Q508 1225 461 1184Q414 1143 414 1077Q414 1036 433 1005.5Q452 975 493.5 946.5Q535 918 690 844Q895 746 971 647.5Q1047 549 1047 406Z"/></g><g transform="translate(1180.1666666666665 2048) scale (1 -1)"><path d="M623 922Q526 922 471 860.5Q416 799 408 686L836 686Q834 799 777 860.5Q720 922 623 922ZM666 -20Q396 -20 244 129Q92 278 92 551Q92 832 232.5 985.5Q373 1139 621 1139Q858 1139 990 1004Q1122 869 1122 631L1122 483L401 483Q406 353 478 280Q550 207 680 207Q781 207 871 228Q961 249 1059 295L1059 59Q979 19 888 -0.5Q797 -20 666 -20Z"/></g><g transform="translate(2390.1666666666665 2048) scale (1 -1)"><path d="M631 223Q711 223 823 258L823 31Q709 -20 543 -20Q360 -20 276.5 72.5Q193 165 193 350L193 889L47 889L47 1018L215 1120L303 1356L498 1356L498 1118L811 1118L811 889L498 889L498 350Q498 285 534.5 254Q571 223 631 223Z"/></g><g transform="translate(3279.1666666666665 2048) scale (1 -1)"><path d="M952 0L911 143L895 143Q846 65 756 22.5Q666 -20 551 -20Q354 -20 254 85.5Q154 191 154 389L154 1118L459 1118L459 465Q459 344 502 283.5Q545 223 639 223Q767 223 824 308.5Q881 394 881 592L881 1118L1186 1118L1186 0Z"/></g><g transform="translate(4625.166666666666 2048) scale (1 -1)"><path d="M774 -20Q577 -20 465 123L449 123Q465 -17 465 -39L465 -492L160 -492L160 1118L408 1118L451 973L465 973Q572 1139 782 1139Q980 1139 1092 986Q1204 833 1204 561Q1204 382 1151.5 250Q1099 118 1002 49Q905 -20 774 -20ZM684 895Q571 895 519 825.5Q467 756 465 596L465 563Q465 383 518.5 305Q572 227 688 227Q893 227 893 565Q893 730 842.5 812.5Q792 895 684 895Z"/></g></g></g><g transform="translate(89,115)"><rect x="0" y="0" width="50" height="30" border="1" rx="10" ry="10" style="fill:#E0E0E0;stroke:#707070;stroke-width:1px;"/><g transform="translate (6 6) scale(0.005859375)" style="fill:#4F4F4F;"><g transform="translate(77.66666666666652 2048) scale (1 -1)"><path d="M803 0L451 1147L442 1147Q461 797 461 680L461 0L184 0L184 1462L606 1462L952 344L958 344L1325 1462L1747 1462L1747 0L1458 0L1458 692Q1458 741 1459.5 805Q1461 869 1473 1145L1464 1145L1087 0Z"/></g><g transform="translate(2008.6666666666665 2048) scale (1 -1)"><path d="M403 561Q403 395 457.5 310Q512 225 635 225Q757 225 810.5 309.5Q864 394 864 561Q864 727 810 810Q756 893 633 893Q511 893 457 810.5Q403 728 403 561ZM1176 561Q1176 288 1032 134Q888 -20 631 -20Q470 -20 347 50.5Q224 121 158 253Q92 385 92 561Q92 835 235 987Q378 1139 637 1139Q798 1139 921 1069Q1044 999 1110 868Q1176 737 1176 561Z"/></g><g transform="translate(3276.6666666666665 2048) scale (1 -1)"><path d="M514 -20Q317 -20 204.5 133Q92 286 92 557Q92 832 206.5 985.5Q321 1139 522 1139Q733 1139 844 975L854 975Q831 1100 831 1198L831 1556L1137 1556L1137 0L903 0L844 145L831 145Q727 -20 514 -20ZM621 223Q738 223 792.5 291Q847 359 852 522L852 555Q852 735 796.5 813Q741 891 616 891Q514 891 457.5 804.5Q401 718 401 553Q401 388 458 305.5Q515 223 621 223Z"/></g><g transform="translate(4572.666666666666 2048) scale (1 -1)"><path d="M623 922Q526 922 471 860.5Q416 799 408 686L836 686Q834 799 777 860.5Q720 922 623 922ZM666 -20Q396 -20 244 129Q92 278 92 551Q92 832 232.5 985.5Q373 1139 621 1139Q858 1139 990 1004Q1122 869 1122 631L1122 483L401 483Q406 353 478 280Q550 207 680 207Q781 207 871 228Q961 249 1059 295L1059 59Q979 19 888 -0.5Q797 -20 666 -20Z"/></g><g transform="translate(5782.666666666666 2048) scale (1 -1)"><path d="M465 0L160 0L160 1556L465 1556Z"/></g></g></g><g transform="translate(17,115)"><rect x="0" y="0" width="52" height="30" border="1" rx="10" ry="10" style="fill:#E0E0E0;stroke:#707070;stroke-width:1px;"/><g transform="translate (6 6) scale(0.005859375)" style="fill:#4F4F4F;"><g transform="translate(61.833333333333485 2048) scale (1 -1)"><path d="M1511 733Q1511 370 1331 175Q1151 -20 815 -20Q479 -20 299 175Q119 370 119 735Q119 1100 299.5 1292.5Q480 1485 817 1485Q1154 1485 1332.5 1291Q1511 1097 1511 733ZM444 733Q444 488 537 364Q630 240 815 240Q1186 240 1186 733Q1186 1227 817 1227Q632 1227 538 1102.5Q444 978 444 733Z"/></g><g transform="translate(1691.8333333333335 2048) scale (1 -1)"><path d="M782 1139Q980 1139 1092 984.5Q1204 830 1204 561Q1204 284 1088.5 132Q973 -20 774 -20Q577 -20 465 123L444 123L393 0L160 0L160 1556L465 1556L465 1194Q465 1125 453 973L465 973Q572 1139 782 1139ZM684 895Q571 895 519 825.5Q467 756 465 596L465 563Q465 383 518.5 305Q572 227 688 227Q782 227 837.5 313.5Q893 400 893 565Q893 730 837 812.5Q781 895 684 895Z"/></g><g transform="translate(2987.8333333333335 2048) scale (1 -1)"><path d="M70 -492Q-47 -492 -131 -467L-131 -227Q-61 -246 12 -246Q89 -246 124.5 -203Q160 -160 160 -76L160 1118L465 1118L465 -121Q465 -299 362 -395.5Q259 -492 70 -492ZM147 1407Q147 1556 313 1556Q479 1556 479 1407Q479 1336 437.5 1296.5Q396 1257 313 1257Q147 1257 147 1407Z"/></g><g transform="translate(3612.8333333333335 2048) scale (1 -1)"><path d="M623 922Q526 922 471 860.5Q416 799 408 686L836 686Q834 799 777 860.5Q720 922 623 922ZM666 -20Q396 -20 244 129Q92 278 92 551Q92 832 232.5 985.5Q373 1139 621 1139Q858 1139 990 1004Q1122 869 1122 631L1122 483L401 483Q406 353 478 280Q550 207 680 207Q781 207 871 228Q961 249 1059 295L1059 59Q979 19 888 -0.5Q797 -20 666 -20Z"/></g><g transform="translate(4822.833333333334 2048) scale (1 -1)"><path d="M614 -20Q92 -20 92 553Q92 838 234 988.5Q376 1139 641 1139Q835 1139 989 1063L899 827Q827 856 765 874.5Q703 893 641 893Q403 893 403 555Q403 227 641 227Q729 227 804 250.5Q879 274 954 324L954 63Q880 16 804.5 -2Q729 -20 614 -20Z"/></g><g transform="translate(5875.833333333334 2048) scale (1 -1)"><path d="M631 223Q711 223 823 258L823 31Q709 -20 543 -20Q360 -20 276.5 72.5Q193 165 193 350L193 889L47 889L47 1018L215 1120L303 1356L498 1356L498 1118L811 1118L811 889L498 889L498 350Q498 285 534.5 254Q571 223 631 223Z"/></g></g></g><g transform="translate(-14,245)"><rect x="0" y="0" width="44" height="30" border="1" rx="10" ry="10" style="fill:#E0E0E0;stroke:#707070;stroke-width:1px;"/><g transform="translate (6 6) scale(0.005859375)" style="fill:#4F4F4F;"><g transform="translate(23.666666666666515 2048) scale (1 -1)"><path d="M494 774L596 774Q739 774 810 830.5Q881 887 881 995Q881 1104 821.5 1156Q762 1208 635 1208L494 1208ZM1194 1006Q1194 770 1046.5 645Q899 520 627 520L494 520L494 0L184 0L184 1462L651 1462Q917 1462 1055.5 1347.5Q1194 1233 1194 1006Z"/></g><g transform="translate(1309.6666666666665 2048) scale (1 -1)"><path d="M403 561Q403 395 457.5 310Q512 225 635 225Q757 225 810.5 309.5Q864 394 864 561Q864 727 810 810Q756 893 633 893Q511 893 457 810.5Q403 728 403 561ZM1176 561Q1176 288 1032 134Q888 -20 631 -20Q470 -20 347 50.5Q224 121 158 253Q92 385 92 561Q92 835 235 987Q378 1139 637 1139Q798 1139 921 1069Q1044 999 1110 868Q1176 737 1176 561Z"/></g><g transform="translate(2577.6666666666665 2048) scale (1 -1)"><path d="M147 1407Q147 1556 313 1556Q479 1556 479 1407Q479 1336 437.5 1296.5Q396 1257 313 1257Q147 1257 147 1407ZM465 0L160 0L160 1118L465 1118Z"/></g><g transform="translate(3202.6666666666665 2048) scale (1 -1)"><path d="M1192 0L887 0L887 653Q887 774 844 834.5Q801 895 707 895Q579 895 522 809.5Q465 724 465 526L465 0L160 0L160 1118L393 1118L434 975L451 975Q502 1056 591.5 1097.5Q681 1139 795 1139Q990 1139 1091 1033.5Q1192 928 1192 729Z"/></g><g transform="translate(4548.666666666666 2048) scale (1 -1)"><path d="M631 223Q711 223 823 258L823 31Q709 -20 543 -20Q360 -20 276.5 72.5Q193 165 193 350L193 889L47 889L47 1018L215 1120L303 1356L498 1356L498 1118L811 1118L811 889L498 889L498 350Q498 285 534.5 254Q571 223 631 223Z"/></g></g></g><g transform="translate(50,245)"><rect x="0" y="0" width="51" height="30" border="1" rx="10" ry="10" style="fill:#E0E0E0;stroke:#707070;stroke-width:1px;"/><g transform="translate (6 6) scale(0.005859375)" style="fill:#4F4F4F;"><g transform="translate(82 2048) scale (1 -1)"><path d="M489 0L184 0L184 1462L1022 1462L1022 1208L489 1208L489 831L985 831L985 578L489 578Z"/></g><g transform="translate(1206 2048) scale (1 -1)"><path d="M784 1139Q846 1139 887 1130L864 844Q827 854 774 854Q628 854 546.5 779Q465 704 465 569L465 0L160 0L160 1118L391 1118L436 930L451 930Q503 1024 591.5 1081.5Q680 1139 784 1139Z"/></g><g transform="translate(2136 2048) scale (1 -1)"><path d="M870 0L811 152L803 152Q726 55 644.5 17.5Q563 -20 432 -20Q271 -20 178.5 72Q86 164 86 334Q86 512 210.5 596.5Q335 681 586 690L780 696L780 745Q780 915 606 915Q472 915 291 834L190 1040Q383 1141 618 1141Q843 1141 963 1043Q1083 945 1083 745L1083 0ZM780 518L662 514Q529 510 464 466Q399 422 399 332Q399 203 547 203Q653 203 716.5 264Q780 325 780 426Z"/></g><g transform="translate(3373 2048) scale (1 -1)"><path d="M1161 0L856 0L856 653Q856 774 815.5 834.5Q775 895 688 895Q571 895 518 809Q465 723 465 526L465 0L160 0L160 1118L393 1118L434 975L451 975Q496 1052 581 1095.5Q666 1139 776 1139Q1027 1139 1116 975L1143 975Q1188 1053 1275.5 1096Q1363 1139 1473 1139Q1663 1139 1760.5 1041.5Q1858 944 1858 729L1858 0L1552 0L1552 653Q1552 774 1511.5 834.5Q1471 895 1384 895Q1272 895 1216.5 815Q1161 735 1161 561Z"/></g><g transform="translate(5384 2048) scale (1 -1)"><path d="M623 922Q526 922 471 860.5Q416 799 408 686L836 686Q834 799 777 860.5Q720 922 623 922ZM666 -20Q396 -20 244 129Q92 278 92 551Q92 832 232.5 985.5Q373 1139 621 1139Q858 1139 990 1004Q1122 869 1122 631L1122 483L401 483Q406 353 478 280Q550 207 680 207Q781 207 871 228Q961 249 1059 295L1059 59Q979 19 888 -0.5Q797 -20 666 -20Z"/></g></g></g></g></svg>